<?xml version="1.0" encoding="UTF-8" standalone="no"?><!DOCTYPE svg PUBLIC "-//W3C//DTD SVG 1.1//EN" "http://www.w3.org/Graphics/SVG/1.1/DTD/svg11.dtd"><svg width="100%" height="100%" viewBox="0 0 1769 2433" version="1.1" xmlns="http://www.w3.org/2000/svg" xmlns:xlink="http://www.w3.org/1999/xlink" xml:space="preserve" xmlns:serif="http://www.serif.com/" style="fill-rule:evenodd;clip-rule:evenodd;stroke-linejoin:round;stroke-miterlimit:2;"><rect id="Artboard1" x="0" y="0" width="1768.63" height="2432.14" style="fill:none;"/><path d="M1190.27,2236.72c1.107,0.066 2.198,0.082 3.304,0.082c33.024,-0 60.629,-25.879 62.354,-59.245l58.691,-1126.66c1.791,-34.473 -24.707,-63.884 -59.163,-65.674c-34.554,-1.839 -63.867,24.691 -65.674,59.163l-58.675,1126.66c-1.791,34.472 24.691,63.883 59.163,65.673Z" style="fill-rule:nonzero;"/><path d="M515.479,2177.7c1.823,33.318 29.394,59.099 62.353,59.099c1.14,-0 2.312,-0.033 3.467,-0.098c34.457,-1.872 60.873,-31.331 59.001,-65.804l-61.475,-1126.66c-1.872,-34.473 -31.331,-60.889 -65.804,-59.001c-34.456,1.872 -60.872,31.332 -59,65.804l61.458,1126.66Z" style="fill-rule:nonzero;"/><path d="M885.01,2236.8c34.522,-0 62.5,-27.979 62.5,-62.5l0,-1126.66c0,-34.522 -27.978,-62.5 -62.5,-62.5c-34.521,-0 -62.5,27.978 -62.5,62.5l0,1126.66c0,34.521 27.979,62.5 62.5,62.5Z" style="fill-rule:nonzero;"/><path d="M1750.1,775.645l-47.103,-141.194c-17.936,-53.776 -68.082,-89.909 -124.756,-89.909l-395.882,-0l0,-128.89c0,-64.421 -52.376,-116.846 -116.78,-116.846l-362.533,0c-64.388,0 -116.781,52.425 -116.781,116.846l0,128.89l-395.865,-0c-56.69,-0 -106.836,36.133 -124.773,89.909l-47.102,141.194c-10.726,32.146 -5.29,67.741 14.518,95.231c19.808,27.491 51.855,43.913 85.742,43.913l1531.06,0c33.886,0 65.934,-16.422 85.742,-43.896c19.808,-27.491 25.244,-63.102 14.518,-95.248Zm-1038.84,-351.839l346.094,0l0,120.736l-346.094,-0l0,-120.736Zm785.905,490.983l-1203.74,0l1203.74,0Zm-1351.58,-125l38.623,-115.788c0.879,-2.669 3.369,-4.459 6.185,-4.459l1387.84,-0c2.816,-0 5.29,1.79 6.185,4.459l38.623,115.788l-1477.46,0Z" style="fill-rule:nonzero;"/><path d="M1611.59,914.789l-1454.56,0l108.366,1340.02c8.056,99.43 92.431,177.327 192.122,177.327l853.597,0c99.674,0 184.066,-77.897 192.106,-177.343l108.366,-1340.01Zm-232.959,1329.93c-2.832,35.01 -32.487,62.418 -67.513,62.418l-853.597,0c-35.026,0 -64.681,-27.408 -67.513,-62.418l-107.568,-1329.93l1203.74,0l-107.552,1329.93Z" style="fill-rule:nonzero;"/></svg>