<?xml version="1.0" encoding="UTF-8" standalone="no"?><!DOCTYPE svg PUBLIC "-//W3C//DTD SVG 1.1//EN" "http://www.w3.org/Graphics/SVG/1.1/DTD/svg11.dtd"><svg width="100%" height="100%" viewBox="0 0 1710 2437" version="1.1" xmlns="http://www.w3.org/2000/svg" xmlns:xlink="http://www.w3.org/1999/xlink" xml:space="preserve" xmlns:serif="http://www.serif.com/" style="fill-rule:evenodd;clip-rule:evenodd;stroke-linejoin:round;stroke-miterlimit:2;"><rect id="Artboard2" x="0" y="0" width="1709.86" height="2436.77" style="fill:none;"/><clipPath id="_clip1"><rect x="0" y="0" width="1709.86" height="2436.77"/></clipPath><g clip-path="url(#_clip1)"><g><path d="M1153.28,2241.97c1.106,0.066 2.197,0.082 3.304,0.082c33.024,-0 60.628,-25.879 62.353,-59.245l58.692,-1126.66c1.79,-34.473 -24.708,-63.884 -59.164,-65.674c-34.554,-1.839 -63.867,24.691 -65.674,59.163l-58.675,1126.66c-1.79,34.472 24.691,63.883 59.164,65.673Z" style="fill-rule:nonzero;"/><path d="M478.488,2182.95c1.823,33.317 29.395,59.098 62.354,59.098c1.139,-0 2.311,-0.033 3.466,-0.098c34.457,-1.872 60.873,-31.331 59.001,-65.804l-61.474,-1126.66c-1.872,-34.473 -31.332,-60.889 -65.805,-59.001c-34.456,1.872 -60.872,31.332 -59,65.804l61.458,1126.66Z" style="fill-rule:nonzero;"/><path d="M848.019,2242.05c34.522,-0 62.5,-27.979 62.5,-62.5l0,-1126.66c0,-34.522 -27.978,-62.5 -62.5,-62.5c-34.521,-0 -62.5,27.978 -62.5,62.5l0,1126.66c0,34.521 27.979,62.5 62.5,62.5Z" style="fill-rule:nonzero;"/><path d="M1692.25,740.828l-8.954,-148.574c-3.407,-56.586 -42.493,-104.467 -97.235,-119.135l-382.393,-102.462l33.36,-124.498c16.673,-62.225 -20.35,-126.42 -82.56,-143.089l-350.179,-93.831c-62.194,-16.664 -126.37,20.414 -143.044,82.64l-33.359,124.498l-382.377,-102.458c-54.758,-14.672 -112.547,7.251 -143.791,54.552l-82.041,124.193c-18.681,28.273 -22.643,64.063 -10.625,95.743c12.018,31.681 38.723,55.838 71.456,64.608l1478.88,396.267c32.732,8.77 67.938,1.202 94.182,-20.209c26.248,-21.427 40.716,-54.419 38.675,-88.245Zm-912.374,-608.721l334.3,89.576l-31.248,116.622l-334.301,-89.576l31.249,-116.622Zm632.05,677.661l-1162.73,-311.552l1162.73,311.552Zm-1273.17,-470.555l67.275,-101.846c1.54,-2.351 4.409,-3.436 7.129,-2.707l1340.55,359.2c2.72,0.729 4.646,3.098 4.82,5.908l7.339,121.839l-1427.12,-382.394Z" style="fill-rule:nonzero;"/><path d="M1574.6,920.039l-1454.56,0l108.366,1340.02c8.057,99.43 92.432,177.328 192.122,177.328l853.597,-0c99.675,-0 184.066,-77.898 192.106,-177.344l108.366,-1340.01Zm-232.959,1329.93c-2.832,35.01 -32.487,62.419 -67.513,62.419l-853.597,-0c-35.026,-0 -64.681,-27.409 -67.513,-62.419l-107.568,-1329.93l1203.74,0l-107.552,1329.93Z" style="fill-rule:nonzero;"/></g></g></svg>